<svg xmlns="http://www.w3.org/2000/svg" width="20.524" height="24.36" viewBox="0 0 20.524 24.36">
  <g id="add-list" transform="translate(-0.031)">
    <path id="Path_16064" data-name="Path 16064" d="M20.555,17.745V.487A.487.487,0,0,0,20.068,0H6.365V4.385A1.462,1.462,0,0,1,4.9,5.846H.031V23.873a.487.487,0,0,0,.487.487H20.555C20.547,24.329,20.525,17.736,20.555,17.745ZM8.314,8.77h9.744a.487.487,0,1,1,0,.974H8.314a.487.487,0,0,1,0-.974Zm0,2.923h9.744a.487.487,0,1,1,0,.974H8.314a.487.487,0,0,1,0-.974Zm0,2.923h9.744a.487.487,0,1,1,0,.974H8.314a.487.487,0,0,1,0-.974ZM6.34,16.3,4.273,18.371a.487.487,0,0,1-.689,0L2.551,17.338a.487.487,0,0,1,.689-.689l.689.689,1.722-1.722a.487.487,0,0,1,.689.689Zm0-2.923L4.273,15.448a.487.487,0,0,1-.689,0L2.551,14.414a.487.487,0,0,1,.689-.689l.689.689,1.722-1.722a.487.487,0,0,1,.689.689Zm0-2.923L4.273,12.525a.487.487,0,0,1-.689,0L2.551,11.491A.487.487,0,1,1,3.24,10.8l.689.689L5.651,9.769a.487.487,0,0,1,.689.689Zm0-2.923L4.273,9.6a.487.487,0,0,1-.689,0L2.551,8.568a.487.487,0,1,1,.689-.689l.689.689L5.651,6.846a.487.487,0,0,1,.689.689ZM8.314,18.514a.487.487,0,1,1,0-.974h7.308a.487.487,0,0,1,0,.974Zm0,0" fill="#fff"/>
    <path id="Path_16066" data-name="Path 16066" d="M17.1,14.033V10.273L12.5,14.52h4.113A.487.487,0,0,0,17.1,14.033Zm0,0" transform="translate(-11.706 -9.648)" fill="#fff"/>
  </g>
</svg>
