<svg xmlns="http://www.w3.org/2000/svg" width="22.107" height="28.25" viewBox="0 0 22.107 28.25">
  <g id="Group_29057" data-name="Group 29057" transform="translate(125 143)">
    <g id="quality" transform="translate(-125 -143)">
      <g id="Group_29039" data-name="Group 29039" transform="translate(2.378 21.57)">
        <g id="Group_29038" data-name="Group 29038">
          <path id="Path_16060" data-name="Path 16060" d="M105.83,391.424a3.51,3.51,0,0,1-3.976.6,3.622,3.622,0,0,1-1.223-.949l-1.84,4.069a.354.354,0,0,0,.417.487l1.339-.373a1.706,1.706,0,0,1,2,.9l.6,1.252a.354.354,0,0,0,.641-.008l2.926-6.472A2.2,2.2,0,0,0,105.83,391.424Z" transform="translate(-98.758 -390.926)" fill="#fff"/>
        </g>
      </g>
      <g id="Group_29041" data-name="Group 29041" transform="translate(11.772 21.57)">
        <g id="Group_29040" data-name="Group 29040">
          <path id="Path_16061" data-name="Path 16061" d="M276.946,395.139l-1.84-4.069a3.621,3.621,0,0,1-1.223.949,3.51,3.51,0,0,1-3.976-.6,2.2,2.2,0,0,0-.885-.5l2.926,6.472a.354.354,0,0,0,.641.008l.6-1.252a1.706,1.706,0,0,1,2-.9l1.339.373a.354.354,0,0,0,.417-.487Z" transform="translate(-269.022 -390.926)" fill="#fff"/>
        </g>
      </g>
      <g id="Group_29043" data-name="Group 29043">
        <g id="Group_29042" data-name="Group 29042">
          <path id="Path_16062" data-name="Path 16062" d="M76.807,11.465a3.591,3.591,0,0,1-1.079-4.729,2.219,2.219,0,0,0-2.574-3.228,3.591,3.591,0,0,1-4.37-2.1,2.219,2.219,0,0,0-4.128,0,3.591,3.591,0,0,1-4.37,2.1,2.219,2.219,0,0,0-2.574,3.228,3.591,3.591,0,0,1-1.079,4.729,2.219,2.219,0,0,0,.919,4.025,3.591,3.591,0,0,1,3.024,3.792,2.219,2.219,0,0,0,3.719,1.791,3.591,3.591,0,0,1,4.85,0,2.219,2.219,0,0,0,3.72-1.791,3.591,3.591,0,0,1,3.024-3.792,2.219,2.219,0,0,0,.919-4.025ZM66.72,18.535a7.262,7.262,0,1,1,7.262-7.262A7.27,7.27,0,0,1,66.72,18.535Z" transform="translate(-55.666)" fill="#fff"/>
        </g>
      </g>
      <g id="Group_29045" data-name="Group 29045" transform="translate(5.145 5.364)">
        <g id="Group_29044" data-name="Group 29044">
          <path id="Path_16063" data-name="Path 16063" d="M154.828,97.225a5.908,5.908,0,1,0,5.908,5.908A5.915,5.915,0,0,0,154.828,97.225Zm3.028,5.335-3.677,2.686a.677.677,0,0,1-.953-.158l-1.1-1.566a.677.677,0,0,1,1.108-.778l.7,1,3.12-2.279a.677.677,0,1,1,.8,1.093Z" transform="translate(-148.92 -97.225)" fill="#fff"/>
        </g>
      </g>
    </g>
  </g>
</svg>
