<svg id="Forma_1" data-name="Forma 1" xmlns="http://www.w3.org/2000/svg" width="56.651" height="56.651" viewBox="0 0 56.651 56.651">
  <path id="Forma_1-2" data-name="Forma 1" d="M0,28.326A28.326,28.326,0,1,1,28.326,56.651,28.357,28.357,0,0,1,0,28.326Zm4.388,0A23.937,23.937,0,1,0,28.326,4.388,23.965,23.965,0,0,0,4.388,28.326ZM24.9,38.748a2.192,2.192,0,0,1-1.564-.656l-8.094-8.228a2.194,2.194,0,0,1,3.129-3.076l6.466,6.573L38.223,18.623a2.194,2.194,0,1,1,3.247,2.951L26.526,38.03a2.2,2.2,0,0,1-1.582.72A.267.267,0,0,0,24.9,38.748Z" fill="#6dba00"/>
</svg>
