<svg xmlns="http://www.w3.org/2000/svg" width="17" height="17" viewBox="0 0 17 17">
  <g id="Group_29125" data-name="Group 29125" transform="translate(9847.246 1789.755)">
    <g id="Group_28765" data-name="Group 28765" transform="translate(-9836 -1789)">
      <g id="Summary_Succesful" data-name="Summary Succesful" transform="translate(-11.246 -0.755)">
        <g id="Icon">
          <g id="Group_11740" data-name="Group 11740">
            <path id="Path_2165" data-name="Path 2165" d="M1927.647,1350.161a8.5,8.5,0,1,1,8.5-8.5A8.51,8.51,0,0,1,1927.647,1350.161Z" transform="translate(-1919.147 -1333.161)" fill="#6dba00"/>
          </g>
          <g id="Group_11741" data-name="Group 11741" transform="translate(4.093 5.577)">
            <g id="Path_2166" data-name="Path 2166" transform="translate(-1936.705 -1354.349)" fill="#fff">
              <path d="M 1939.852416992188 1360.718627929688 C 1939.712768554688 1360.718627929688 1939.580688476562 1360.66552734375 1939.48046875 1360.568969726562 L 1936.612670898438 1357.780883789062 C 1936.511108398438 1357.682373046875 1936.454833984375 1357.55029296875 1936.454833984375 1357.409545898438 C 1936.454711914062 1357.2685546875 1936.5107421875 1357.13623046875 1936.612670898438 1357.036987304688 C 1936.712890625 1356.939819335938 1936.845092773438 1356.886474609375 1936.9853515625 1356.886474609375 C 1937.125610351562 1356.886474609375 1937.2578125 1356.939819335938 1937.357788085938 1357.036743164062 L 1939.852416992188 1359.461791992188 L 1945.215087890625 1354.24951171875 C 1945.314819335938 1354.152465820312 1945.447143554688 1354.098999023438 1945.587524414062 1354.098999023438 C 1945.727905273438 1354.098999023438 1945.860229492188 1354.152465820312 1945.960083007812 1354.249633789062 C 1946.06201171875 1354.3486328125 1946.1181640625 1354.480834960938 1946.1181640625 1354.621826171875 C 1946.1181640625 1354.762817382812 1946.061889648438 1354.89501953125 1945.959838867188 1354.994018554688 L 1940.22509765625 1360.568237304688 C 1940.124755859375 1360.665405273438 1939.992553710938 1360.718627929688 1939.852416992188 1360.718627929688 Z" stroke="none"/>
              <path d="M 1939.852416992188 1360.468627929688 C 1939.927124023438 1360.468627929688 1939.998413085938 1360.439697265625 1940.050903320312 1360.388916015625 L 1945.785766601562 1354.814575195312 C 1945.895629882812 1354.7080078125 1945.895629882812 1354.535522460938 1945.785766601562 1354.428833007812 C 1945.676391601562 1354.322387695312 1945.498657226562 1354.322387695312 1945.389282226562 1354.428833007812 L 1939.852416992188 1359.810424804688 L 1937.183715820312 1357.216186523438 C 1937.074096679688 1357.109985351562 1936.896606445312 1357.109985351562 1936.786987304688 1357.216186523438 C 1936.677368164062 1357.322875976562 1936.677368164062 1357.495361328125 1936.786987304688 1357.601684570312 L 1939.653930664062 1360.388916015625 C 1939.706665039062 1360.439697265625 1939.778198242188 1360.468627929688 1939.852416992188 1360.468627929688 M 1939.852416992188 1360.968627929688 C 1939.647827148438 1360.968627929688 1939.4541015625 1360.890625 1939.30712890625 1360.749145507812 L 1936.4384765625 1357.960205078125 C 1936.2880859375 1357.814331054688 1936.204956054688 1357.61865234375 1936.204833984375 1357.40966796875 C 1936.20458984375 1357.200561523438 1936.287475585938 1357.004638671875 1936.438232421875 1356.85791015625 C 1936.585693359375 1356.71484375 1936.77978515625 1356.636474609375 1936.9853515625 1356.636474609375 C 1937.19091796875 1356.636474609375 1937.385009765625 1356.71484375 1937.531860351562 1356.857299804688 L 1939.852416992188 1359.113159179688 L 1945.040771484375 1354.0703125 C 1945.187377929688 1353.927612304688 1945.381591796875 1353.848999023438 1945.587524414062 1353.848999023438 C 1945.79345703125 1353.848999023438 1945.987670898438 1353.927612304688 1946.134521484375 1354.070556640625 C 1946.285034179688 1354.216796875 1946.3681640625 1354.412719726562 1946.3681640625 1354.621948242188 C 1946.3681640625 1354.8310546875 1946.284912109375 1355.026977539062 1946.133911132812 1355.173461914062 L 1940.3994140625 1360.747436523438 C 1940.251708984375 1360.890380859375 1940.057739257812 1360.968627929688 1939.852416992188 1360.968627929688 Z" stroke="none" fill="#fff"/>
            </g>
          </g>
        </g>
      </g>
    </g>
  </g>
</svg>
