<svg id="Icon_Close" xmlns="http://www.w3.org/2000/svg" xmlns:xlink="http://www.w3.org/1999/xlink" width="16" height="16" viewBox="0 0 16 16">
  <defs>
    <clipPath id="clip-path">
      <rect id="Rectangle_7605" data-name="Rectangle 7605" width="16" height="16" fill="#222"/>
    </clipPath>
  </defs>
  <g id="Group_13086" data-name="Group 13086" clip-path="url(#clip-path)">
    <path id="Path_13454" data-name="Path 13454" d="M8,9.6a3.917,3.917,0,0,1-.288.393q-2.783,2.783-5.572,5.56A1.2,1.2,0,0,1,.6,15.83a1.14,1.14,0,0,1-.463-1.523,2.3,2.3,0,0,1,.408-.521q2.71-2.714,5.431-5.418a4.6,4.6,0,0,1,.371-.3c-.135-.145-.22-.242-.31-.333Q3.258,4.947.482,2.157A1.242,1.242,0,0,1,.067.809,1.19,1.19,0,0,1,2.095.4c.651.638,1.288,1.29,1.931,1.937Q5.871,4.2,7.715,6.056a3.215,3.215,0,0,1,.227.286L8.1,6.4a1.573,1.573,0,0,1,.2-.345Q11.066,3.278,13.843.513A1.242,1.242,0,0,1,15.26.138a1.149,1.149,0,0,1,.565,1.687,2.362,2.362,0,0,1-.361.433q-2.748,2.747-5.5,5.49c-.085.085-.165.174-.261.275.1.1.177.191.261.276q2.751,2.768,5.5,5.534a1.25,1.25,0,0,1,.419,1.348,1.182,1.182,0,0,1-1.9.525,3.155,3.155,0,0,1-.265-.253q-2.705-2.719-5.409-5.44A4.847,4.847,0,0,1,8,9.6" transform="translate(0 0)" fill="#222"/>
  </g>
</svg>
