<svg id="ICon_Plus" xmlns="http://www.w3.org/2000/svg" width="18" height="18" viewBox="0 0 18 18">
  <path id="Path_14573" data-name="Path 14573" d="M197.5,322.366c0,1.02.006,2.04-.005,3.06,0,.219.062.273.276.272,1.951-.008,3.9,0,5.853-.005a1.378,1.378,0,0,1,.362,2.73,2.839,2.839,0,0,1-.459.028c-1.893,0-3.787.007-5.68,0-.269,0-.356.053-.354.342.014,1.963.007,3.926.008,5.888a1.328,1.328,0,0,1-1.362,1.4,1.348,1.348,0,0,1-1.383-1.414c0-1.973,0-3.945.008-5.917,0-.251-.083-.3-.312-.295-1.932.009-3.863,0-5.8.005a1.4,1.4,0,0,1-1.274-.585,1.373,1.373,0,0,1,.94-2.153,3,3,0,0,1,.431-.02c1.9,0,3.806-.006,5.709,0,.244,0,.3-.069.3-.306-.01-1.972,0-3.945-.007-5.917a1.343,1.343,0,0,1,1.365-1.4,1.327,1.327,0,0,1,1.38,1.378Q197.5,320.909,197.5,322.366Z" transform="translate(-187.133 -318.073)" fill="#f78c2a"/>
</svg>
