<svg xmlns="http://www.w3.org/2000/svg" width="24.012" height="24.006" viewBox="0 0 24.012 24.006">
  <g id="Icon_search" transform="translate(0 0)">
    <path id="Path_13451" data-name="Path 13451" d="M15.822,17.366A9.623,9.623,0,0,1,7.777,19.3a9.406,9.406,0,0,1-5.944-3.854A9.842,9.842,0,0,1,3.081,2.583,9.763,9.763,0,0,1,17.364,15.811c.081.085.164.175.25.261l5.8,5.8c.074.074.15.146.22.223a1.1,1.1,0,0,1,.06,1.6,1.2,1.2,0,0,1-1.619,0c-.071-.061-.135-.131-.2-.2q-2.923-2.922-5.843-5.847a2.377,2.377,0,0,1-.209-.281m1.455-7.617a7.518,7.518,0,1,0-7.509,7.515,7.5,7.5,0,0,0,7.509-7.515" transform="translate(0 0)" fill="#222"/>
  </g>
</svg>
