<svg id="Logo_white" xmlns="http://www.w3.org/2000/svg" width="85.1" height="81" viewBox="0 0 85.1 81">
  <g id="Group_487" data-name="Group 487" transform="translate(0 13.801)">
    <path id="Path_28" data-name="Path 28" d="M302.1,399.424a3.176,3.176,0,0,1,.1-.357,6.073,6.073,0,0,1,2.52-2.95c.214-.127.519-.348.7-.088a.947.947,0,0,1-.058.753,4.852,4.852,0,0,1-2.869,2.562,3.332,3.332,0,0,1-.393.079m-11.6-1.259c.124.088.253.169.377.252-.372,1.221-3.576,3.775-4.52,3.611-.126-1.089,3.075-4.854,4.327-4.978a3.94,3.94,0,0,1-.279.519.364.364,0,0,0,.1.595m17.852,2.6a.561.561,0,0,0-.067-.693.542.542,0,0,0-.693-.08,1.631,1.631,0,0,0-.457.421,5.592,5.592,0,0,1-1.5,1.505,2.823,2.823,0,0,1-2.718.41,1.255,1.255,0,0,1-.812-1.166,5.14,5.14,0,0,0,.5-.126,7.222,7.222,0,0,0,3.868-3.425,4.558,4.558,0,0,0,.488-1.4c.225-1.25-.543-2.033-1.724-1.789a3.479,3.479,0,0,0-.979.341,7.51,7.51,0,0,0-3.629,4.58,3.551,3.551,0,0,1-.29.757c-.2.342-.407.352-.724.148-.7-.452-1.41-.889-2.117-1.332-.275-.172-.552-.341-.9-.56a1.606,1.606,0,0,0,.2-.119c1.078-.938,2.14-1.9,3.237-2.809a1.372,1.372,0,0,0,.462-1.334c-.053-.473-.34-.648-.734-.42a5.855,5.855,0,0,0-.916.695c-.631.557-1.235,1.148-1.872,1.7a12.413,12.413,0,0,1-1.193.886c-.258.173-.355.106-.341-.212a12.407,12.407,0,0,1,.1-1.367c.176-1.115.394-2.223.575-3.338a2.471,2.471,0,0,0-.151-1.574c-.12-.232-.289-.389-.552-.207a2.243,2.243,0,0,0-1.084,1.587c-.069.555-.1,1.115-.164,1.671-.119,1.113-.289,2.223-.357,3.34-.09,1.5-.1,3-.15,4.494,0,.124-.018.248-.032.443-.08-.109-.107-.144-.131-.18a3.733,3.733,0,0,1-.506-2.556,5.075,5.075,0,0,0,.005-1.484,2.372,2.372,0,0,1-.06-.977,1.165,1.165,0,0,0-1.212-1.46,2.912,2.912,0,0,0-1.09.29,14.823,14.823,0,0,0-5.9,5.523c-.067.106-.117.225-.219.424-.031-.18-.053-.255-.055-.33-.047-1.348-.084-2.7-.142-4.044a9.7,9.7,0,0,0-.155-1.6c-.169-.789-.725-1.05-1.373-.623a6.122,6.122,0,0,0-1.252,1.124,19.156,19.156,0,0,0-2.6,4.292c-.235.491-.46.988-.714,1.536a2.3,2.3,0,0,1-.067-.317c-.047-1.028-.085-2.057-.137-3.084a8.652,8.652,0,0,0-.391-2.665c-.286-.755-.852-.9-1.387-.313a4.1,4.1,0,0,0-.788,1.2c-.476,1.2-.882,2.428-1.318,3.645a3.171,3.171,0,0,1-.2.5c-.126.221-.3.211-.369-.031a3.021,3.021,0,0,1-.138-.8c-.015-1.041,0-2.082-.008-3.123a1.265,1.265,0,0,0-.451-1.086.477.477,0,0,0-.322-.1,1.206,1.206,0,0,0-1.044,1.18c-.008,1.278.015,2.561.109,3.835a15.06,15.06,0,0,0,.428,2.629,1.166,1.166,0,0,0,2.054.546,2.655,2.655,0,0,0,.625-.985c.309-.972.542-1.97.806-2.958.065-.242.118-.487.2-.722.033-.094.131-.163.2-.243.065.082.161.154.187.248a4.32,4.32,0,0,1,.129.669c.113.964.172,1.938.344,2.889a4.475,4.475,0,0,0,.591,1.535c.431.689,1.153.6,1.538-.111a2.781,2.781,0,0,0,.13-.276c.262-.652.506-1.312.786-1.955.547-1.254,1.1-2.507,1.681-3.743a3.814,3.814,0,0,1,.665-.92c.229-.249.409-.171.458.169a5.536,5.536,0,0,1,.04.752,23.8,23.8,0,0,0,.467,4.8c.14.656.329,1.3.521,1.943a.628.628,0,0,0,.616.516,1.072,1.072,0,0,0,1.109-1.063,2.607,2.607,0,0,0-.028-.4,2.345,2.345,0,0,0,1.849-.3c.294-.144.582-.3.862-.474a14.7,14.7,0,0,0,2.874-2.553c.164-.172.344-.327.476-.452.267.712.487,1.418.792,2.081a1.262,1.262,0,0,0,1.489.838c0,.209-.009.4,0,.592a5.187,5.187,0,0,0,.077.78c.065.3.239.584.548.6a.778.778,0,0,0,.826-.428,2.56,2.56,0,0,0,.243-.876c.028-.673-.017-1.349-.015-2.023,0-.474.033-.949.053-1.46a2.755,2.755,0,0,1,.432.143,21.069,21.069,0,0,1,3.622,2.265c.352.3.725.577,1.1.846a.6.6,0,0,0,.7.047.359.359,0,0,1,.469.057,2.361,2.361,0,0,0,1.633.556,6.08,6.08,0,0,0,3.682-1.6,4.784,4.784,0,0,0,1.375-1.754m19.632-10.949a1.439,1.439,0,0,0-.671-.182,4.228,4.228,0,0,0-.61.071q-2.511.167-5.022.324c-.372.024-.745.037-1.136.057.037-.386.082-.725.1-1.066.032-.576-.19-.957-.589-1.046-.448-.1-.775.125-.981.68a1.819,1.819,0,0,0-.089.293c-.074.4-.143.807-.22,1.249-.178.014-.369.032-.56.044-1.08.068-2.161.12-3.239.213a1.763,1.763,0,0,0-.784.279.556.556,0,0,0,0,.961.816.816,0,0,0,.439.195,12.353,12.353,0,0,0,1.283-.1c.876-.1,1.751-.216,2.672-.332-.024.228-.036.373-.054.517q-.345,2.72-.691,5.439c-.167,1.3-.326,2.606-.521,3.9a3.5,3.5,0,0,1-.349,1.024c-.192.382-.475.369-.7.012a1.9,1.9,0,0,1-.122-.241,9.077,9.077,0,0,1-.635-3.063,1.055,1.055,0,0,1,.417-.973.856.856,0,0,0,.31-.586,2.768,2.768,0,0,0-1.119-2.145.623.623,0,0,0-1.034.322,3.609,3.609,0,0,0-.207,1,18.315,18.315,0,0,0,.2,4.137,6.634,6.634,0,0,0,1.024,2.822c.724,1.036,1.546,1.04,2.132-.077a10.742,10.742,0,0,0,.9-2.409c.28-1.142.427-2.321.631-3.484a5.953,5.953,0,0,0-.02.673,28.888,28.888,0,0,0,.912,7.29,9.344,9.344,0,0,0,.636,1.529.537.537,0,0,0,.7.341.805.805,0,0,0,.541-.772,3.071,3.071,0,0,0-.116-.705c-.234-.856-.512-1.7-.717-2.562a22.989,22.989,0,0,1-.482-4.9c-.045-2.37.022-4.736.208-7.131.133-.008.229-.017.325-.02,1.871-.062,3.743-.107,5.613-.195a5.433,5.433,0,0,0,1.519-.282.607.607,0,0,0,.1-1.1M313.918,392.9a.776.776,0,0,0,.379.948,4.937,4.937,0,0,0,.736.309c.557-.052.914-.4.843-.862a1.3,1.3,0,0,0-1.012-1.02.953.953,0,0,0-.947.625m18.514,2.064a.9.9,0,0,0-1.116-.841,2.778,2.778,0,0,0-1.772,1.232c-.176.273-.328.563-.515.887.037-.494-.085-.748-.4-.9a.753.753,0,0,0-.928.165,1.585,1.585,0,0,0-.377.626,7.237,7.237,0,0,0-.3,1.775c.034,1.714.137,3.427.245,5.138.046.722.435.975,1.1.8a1.024,1.024,0,0,0,.786-1.131c-.026-.811-.08-1.623-.061-2.433a7.964,7.964,0,0,1,.5-2.678,2.9,2.9,0,0,1,1.82-1.864c.247-.082.488-.184.735-.269a.436.436,0,0,0,.293-.507m10.54,3.252c.1.07.2.129.3.191-.275,1.145-3.521,3.756-4.5,3.629-.216-.944,2.921-4.752,4.312-5-.1.209-.166.361-.248.5-.215.364-.2.44.136.682m-10.437,1.212c.086-.241.132-.418.209-.578a6.113,6.113,0,0,1,2.428-2.731c.216-.126.519-.348.7-.091a.94.94,0,0,1-.055.752,4.857,4.857,0,0,1-2.9,2.574,3.254,3.254,0,0,1-.385.073m13.627,3.45a.742.742,0,0,0-.074-.946,4.126,4.126,0,0,1-.681-3.049,3.969,3.969,0,0,0-.013-1.345,2.034,2.034,0,0,1-.064-.91,1.167,1.167,0,0,0-1.2-1.5,2.929,2.929,0,0,0-1.09.287,14.5,14.5,0,0,0-5.7,5.206,4.164,4.164,0,0,1-2.113,1.719,2.256,2.256,0,0,1-2.095-.145,1.185,1.185,0,0,1-.571-1.037,4.555,4.555,0,0,0,.474-.114,7.239,7.239,0,0,0,3.91-3.469,4.5,4.5,0,0,0,.463-1.341c.237-1.266-.529-2.06-1.726-1.813a3.441,3.441,0,0,0-.978.342,7.4,7.4,0,0,0-3.623,4.617,1.5,1.5,0,0,1-.869,1.145c-.3.113-.264.33-.116.541a.77.77,0,0,0,.321.275,1.2,1.2,0,0,1,.68.795,2.714,2.714,0,0,0,3.324,1.9,13.065,13.065,0,0,0,2.019-.8,2.667,2.667,0,0,0,.3-.168,1.776,1.776,0,0,0,2.371.694,8.748,8.748,0,0,0,2.811-1.869c.614-.592,1.206-1.21,1.824-1.833.188.6.34,1.155.542,1.693a2.121,2.121,0,0,0,.895,1.18.828.828,0,0,0,.975-.054m2.134-8.128c.005-1,.154-2,.24-3.029-.023-.367-.021-.759-.077-1.141-.066-.447-.276-.668-.594-.719a.763.763,0,0,0-.832.519,4.115,4.115,0,0,0-.291,1.115,50.543,50.543,0,0,0-.032,7.368,23.624,23.624,0,0,1,.044,4.484,3.124,3.124,0,0,0,.065,1.118.817.817,0,0,0,.45.514.984.984,0,0,0,1.283-1.012c-.062-1.027-.134-2.053-.159-3.081-.052-2.045-.108-4.09-.1-6.135" transform="translate(-263.457 -340.329)" fill="#f78c2a"/>
    <path id="Path_29" data-name="Path 29" d="M285.661,339.989a22.1,22.1,0,0,0,14.194-5.135,21.778,21.778,0,0,0-28.252.113,22.1,22.1,0,0,0,14.058,5.022" transform="translate(-263.457 -295.546)" fill="#f78c2a"/>
    <path id="Path_30" data-name="Path 30" d="M250.5,212.88a11.895,11.895,0,1,1,16.135-.066A26.307,26.307,0,0,1,275.863,218a22.2,22.2,0,1,0-34.555.137,26.317,26.317,0,0,1,9.192-5.258" transform="translate(-236.327 -181.895)" fill="#fff"/>
  </g>
  <rect id="Rectangle_132" data-name="Rectangle 132" width="10.128" height="40.954" transform="translate(74.972 15.391)" fill="#fff"/>
  <g id="Group_488" data-name="Group 488" transform="translate(43.87)">
    <path id="Path_31" data-name="Path 31" d="M443.985,122.18a10.132,10.132,0,0,0-10.128,10.136v5.255h-7.567v8.435h7.567v32.519h10.128V146.006h8.778v-8.435h-8.778v-3.055a2.2,2.2,0,0,1,2.2-2.2H454.3V122.18Z" transform="translate(-426.291 -122.18)" fill="#fff"/>
  </g>
  <rect id="Rectangle_133" data-name="Rectangle 133" width="10.128" height="10.135" transform="translate(74.972)" fill="#f78c2a"/>
</svg>
