<svg id="Component_358_3" data-name="Component 358 – 3" xmlns="http://www.w3.org/2000/svg" xmlns:xlink="http://www.w3.org/1999/xlink" width="25" height="25" viewBox="0 0 25 25">
  <defs>
    <clipPath id="clip-path">
      <rect id="Rectangle_7441" data-name="Rectangle 7441" width="25" height="25" fill="#fff" stroke="#2e2d2c" stroke-width="1"/>
    </clipPath>
  </defs>
  <g id="Group_14079" data-name="Group 14079" transform="translate(0 25) rotate(-90)">
    <g id="Icon_arrow_down" transform="translate(0 0)">
      <g id="Icon_arrow_down-2" data-name="Icon_arrow_down" clip-path="url(#clip-path)">
        <path id="chevron-down-regular" d="M16.987,144.74l-.65-.65a.394.394,0,0,0-.558,0l-5.941,5.928L3.9,144.091a.394.394,0,0,0-.558,0l-.65.65a.394.394,0,0,0,0,.558l6.869,6.869a.394.394,0,0,0,.558,0l6.869-6.869a.394.394,0,0,0,0-.558Z" transform="translate(2.661 -135.629)" fill="#fff"/>
      </g>
    </g>
  </g>
</svg>
