<svg id="settings_black_24dp-2" xmlns="http://www.w3.org/2000/svg" width="25.332" height="25.332" viewBox="0 0 25.332 25.332">
  <path id="Path_7575" data-name="Path 7575" d="M0,0H25.332V25.332H0Z" fill="none"/>
  <path id="Path_7576" data-name="Path 7576" d="M18.293,12.537a6.9,6.9,0,0,0,.057-.9,5.631,5.631,0,0,0-.066-.9l1.926-1.52a.476.476,0,0,0,.114-.587L18.5,5.429a.46.46,0,0,0-.56-.212l-2.267.923a6.68,6.68,0,0,0-1.537-.9L13.8,2.794a.461.461,0,0,0-.455-.394H9.7a.451.451,0,0,0-.446.394L8.911,5.237a6.827,6.827,0,0,0-1.537.9L5.107,5.218a.45.45,0,0,0-.56.212L2.736,8.622a.441.441,0,0,0,.114.587l1.926,1.52a5.424,5.424,0,0,0-.019,1.808l-1.926,1.52a.476.476,0,0,0-.114.587l1.821,3.193a.46.46,0,0,0,.56.212l2.267-.923a6.68,6.68,0,0,0,1.537.9l.341,2.443a.468.468,0,0,0,.455.394h3.643a.444.444,0,0,0,.446-.394l.341-2.443a6.486,6.486,0,0,0,1.537-.9l2.267.923a.45.45,0,0,0,.56-.212l1.821-3.193a.449.449,0,0,0-.114-.587ZM11.52,15.095a3.463,3.463,0,1,1,3.415-3.462A3.449,3.449,0,0,1,11.52,15.095Z" transform="translate(1.146 1.033)" fill="#fff"/>
</svg>
