<svg xmlns="http://www.w3.org/2000/svg" width="9.997" height="14" viewBox="0 0 9.997 14">
  <g id="Group_29209" data-name="Group 29209" transform="translate(-87 -224.5)">
    <path id="caret-down-solid" d="M9.755,193.706l-3.979,4a1.1,1.1,0,0,1-.736.294,1,1,0,0,1-.708-.293l-3.979-4a.959.959,0,0,1-.245-1.088A1.006,1.006,0,0,1,1.033,192H9.02a1,1,0,0,1,.926.617A.986.986,0,0,1,9.755,193.706Z" transform="translate(86.967 40.5)" fill="#c6c6c5"/>
    <path id="caret-down-solid-2" data-name="caret-down-solid" d="M9.755,196.294l-3.979-4A1.1,1.1,0,0,0,5.041,192a1,1,0,0,0-.708.293l-3.979,4a.959.959,0,0,0-.245,1.088,1.006,1.006,0,0,0,.925.619H9.02a1,1,0,0,0,.926-.617A.986.986,0,0,0,9.755,196.294Z" transform="translate(86.967 32.5)" fill="#222"/>
  </g>
</svg>
