<svg xmlns="http://www.w3.org/2000/svg" width="60" height="60" viewBox="0 0 60 60">
  <g id="Group_13027" data-name="Group 13027" transform="translate(-283.642 -1002.083)">
    <path id="Path_13443" data-name="Path 13443" d="M290.6,343.588a29.877,29.877,0,0,0,19.178-6.933,29.441,29.441,0,0,0-38.172.153,29.874,29.874,0,0,0,18.994,6.78" transform="translate(23.046 718.494)" fill="#f78c2a"/>
    <path id="Path_13444" data-name="Path 13444" d="M255.476,223.726a16.071,16.071,0,1,1,21.8-.089,35.55,35.55,0,0,1,12.467,7,30,30,0,1,0-46.687.185,35.563,35.563,0,0,1,12.42-7.1" transform="translate(47.314 820.188)" fill="#4067fe"/>
  </g>
</svg>
