<svg id="users-2" xmlns="http://www.w3.org/2000/svg" width="18.545" height="17" viewBox="0 0 18.545 17">
  <path id="Path_1704" data-name="Path 1704" d="M26.678,15.757,23.725,14.28a.813.813,0,0,1-.452-.731V12.5c.071-.087.145-.185.222-.294a7.074,7.074,0,0,0,.913-1.792A1.226,1.226,0,0,0,25.128,9.3V8.064a1.233,1.233,0,0,0-.309-.811V5.608a2.771,2.771,0,0,0-.647-2.017A3.89,3.89,0,0,0,21.11,2.5a3.891,3.891,0,0,0-3.062,1.091A2.771,2.771,0,0,0,17.4,5.608V7.252a1.233,1.233,0,0,0-.309.811V9.3a1.229,1.229,0,0,0,.463.961A6.487,6.487,0,0,0,18.637,12.5V13.52a.817.817,0,0,1-.426.717l-2.757,1.5A2.787,2.787,0,0,0,14,18.189V19.5H28.219V18.25A2.774,2.774,0,0,0,26.678,15.757Z" transform="translate(-9.674 -2.5)" fill="#fff"/>
  <path id="Path_1705" data-name="Path 1705" d="M5.558,20.171l2.757-1.5a.354.354,0,0,0,.184-.31v-.87a6.979,6.979,0,0,1-1.031-2.136,1.687,1.687,0,0,1-.514-1.215V12.9a1.689,1.689,0,0,1,.309-.971V10.466a3.224,3.224,0,0,1,.03-.74A4.293,4.293,0,0,0,5.873,9.5a3.093,3.093,0,0,0-3.4,2.782V13.7a1.076,1.076,0,0,0-.309.72v1.068a1.1,1.1,0,0,0,.405.855A4.737,4.737,0,0,0,3.7,18.282v.848a.671.671,0,0,1-.362.592l-2.056,1.29A2.449,2.449,0,0,0,0,23.163v1.174H3.864v-1.31A3.25,3.25,0,0,1,5.558,20.171Z" transform="translate(0 -7.336)" fill="#fff"/>
</svg>
